<svg width="25" height="26" viewBox="0 0 25 26" fill="none" xmlns="http://www.w3.org/2000/svg">
<path d="M2.5 25.0312C1.8125 25.0312 1.22396 24.7865 0.734375 24.2969C0.244792 23.8073 0 23.2188 0 22.5312V5.03125C0 4.34375 0.244792 3.75521 0.734375 3.26562C1.22396 2.77604 1.8125 2.53125 2.5 2.53125H13.6562L11.1562 5.03125H2.5V22.5312H20V13.8438L22.5 11.3438V22.5312C22.5 23.2188 22.2552 23.8073 21.7656 24.2969C21.276 24.7865 20.6875 25.0312 20 25.0312H2.5ZM7.5 17.5312V12.2188L18.9688 0.75C19.2188 0.5 19.5 0.3125 19.8125 0.1875C20.125 0.0625 20.4375 0 20.75 0C21.0833 0 21.401 0.0625 21.7031 0.1875C22.0052 0.3125 22.2812 0.5 22.5312 0.75L24.2812 2.53125C24.5104 2.78125 24.6875 3.05729 24.8125 3.35938C24.9375 3.66146 25 3.96875 25 4.28125C25 4.59375 24.9427 4.90104 24.8281 5.20312C24.7135 5.50521 24.5312 5.78125 24.2812 6.03125L12.8125 17.5312H7.5ZM22.5312 4.28125L20.7812 2.53125L22.5312 4.28125ZM10 15.0312H11.75L19 7.78125L18.125 6.90625L17.2188 6.03125L10 13.25V15.0312ZM18.125 6.90625L17.2188 6.03125L18.125 6.90625L19 7.78125L18.125 6.90625Z" fill="#2180FF"/>
</svg>
